<?xml version="1.0"?>
<svg width="60" height="60" xmlns="http://www.w3.org/2000/svg" xmlns:svg="http://www.w3.org/2000/svg" version="1.1" xml:space="preserve">
 <desc>Created with Fabric.js 5.2.4</desc>

 <g class="layer">
  <title>Layer 1</title>
  <g id="d5fc8706-fec4-49bb-8889-247f37d8fa8f" transform="matrix(1, 0, 0, 1, 540, 540)"/>
  <g id="svg_5" transform="matrix(0.29, 0, 0, 0.29, 490.95, 484.5)">
   <path d="m-265.87,-1423.26c0.99,-6.57 1.56,-12.8 1.64,-18.6c-11.05,-8.84 -24.62,-14.86 -38.59,-18.48c-2.13,4.91 -3.45,10.55 -3.06,17.3c0,1.33 0.08,2.65 0.2,3.95c14.08,3.02 27.57,8.18 39.8,15.83l0.01,0z" fill="rgb(114,191,68)" fill-rule="nonzero" id="svg_6" stroke-dashoffset="0" stroke-miterlimit="4" stroke-width="0" transform="translate(-1324.26, -165.86)"/>
  </g>
  <g id="svg_7" transform="matrix(0.29, 0, 0, 0.29, 491.61, 477.97)">
   <path d="m-266.89,-1469.17c-6.42,-5.32 -14.32,-9.21 -22.5,-11.05c-3.55,4.9 -8.48,10.29 -12.06,17.15c13.17,2.74 25.81,7.52 37.14,14.85c-0.27,-7.78 -1.22,-14.76 -2.59,-20.94l0.01,-0.01z" fill="rgb(114,191,68)" fill-rule="nonzero" id="svg_8" stroke-dashoffset="0" stroke-miterlimit="4" stroke-width="0" transform="translate(-1326.47, -143.44)"/>
  </g>
  <g id="svg_9" transform="matrix(0.29, 0, 0, 0.29, 490.7, 491.12)">
   <path d="m-270.54,-1402.31c1.52,-5.26 2.83,-10.39 3.77,-15.27c-11.34,-8.38 -24.64,-14.42 -38.42,-18.3c3.08,17.19 17,30.69 34.65,33.57z" fill="rgb(114,191,68)" fill-rule="nonzero" id="svg_10" stroke-dashoffset="0" stroke-miterlimit="4" stroke-width="0" transform="translate(-1323.37, -188.56)"/>
  </g>
  <g id="svg_11" transform="matrix(0.29, 0, 0, 0.29, 492.99, 470.73)">
   <path d="m-280.42,-1501.54c-0.94,4.32 -3.07,11.81 -7.2,18.57c6.62,1.04 12.96,3.18 18.81,6.38c-3.87,-13.01 -9.15,-21.46 -11.61,-24.95z" fill="rgb(114,191,68)" fill-rule="nonzero" id="svg_12" stroke-dashoffset="0" stroke-miterlimit="4" stroke-width="0" transform="translate(-1331.13, -118.59)"/>
  </g>
  <g id="svg_13" transform="matrix(0.29, 0, 0, 0.29, 487.02, 497.61)">
   <path d="m-290.57,-1381.53c0.74,-12.05 -4.75,-23.79 -15,-30.67c-1.37,8.92 -1.64,18.04 -0.61,26.87c5.7,0.4 10.66,1.64 15.6,3.8l0.01,0z" fill="rgb(114,191,68)" fill-rule="nonzero" id="svg_14" stroke-dashoffset="0" stroke-miterlimit="4" stroke-width="0" transform="translate(-1310.7, -210.79)"/>
  </g>
  <g id="svg_15" transform="matrix(0.29, 0, 0, 0.29, 470.6, 494.04)">
   <path d="m-348.27,-1415.74c-5.34,0.09 -10.32,-0.82 -13.52,-1.61c2.04,4.29 5.75,10.58 12.04,16.48c-0.15,-5.05 0.44,-10.01 1.48,-14.87z" fill="rgb(114,191,68)" fill-rule="nonzero" id="svg_16" stroke-dashoffset="0" stroke-miterlimit="4" stroke-width="0" transform="translate(-1254.32, -198.55)"/>
  </g>
  <g id="svg_17" transform="matrix(0.29, 0, 0, 0.29, 481.57, 496.05)">
   <path d="m-311.46,-1385.67c-0.34,-9.62 0.74,-19.09 2.97,-28.33c-0.25,-0.13 -0.46,-0.31 -0.71,-0.44c-5.46,-3.15 -10.68,-4.16 -15.59,-4.24c-1.8,10.35 -2.05,21.06 0.03,31.12c4.02,1 8.47,1.63 13.3,1.89z" fill="rgb(114,191,68)" fill-rule="nonzero" id="svg_18" stroke-dashoffset="0" stroke-miterlimit="4" stroke-width="0" transform="translate(-1291.99, -205.49)"/>
  </g>
  <g id="svg_19" transform="matrix(0.29, 0, 0, 0.29, 475.93, 495.55)">
   <path d="m-330.23,-1389.15c-1.03,-9.92 -0.15,-19.83 2.11,-29.48c-5.71,0.39 -10.91,1.86 -15.39,2.53c-0.42,0.06 -0.85,0.07 -1.27,0.12c-0.84,6.66 -0.75,13.47 0.76,19.72c3.88,2.74 8.4,5.23 13.79,7.11z" fill="rgb(114,191,68)" fill-rule="nonzero" id="svg_20" stroke-dashoffset="0" stroke-miterlimit="4" stroke-width="0" transform="translate(-1272.63, -203.77)"/>
  </g>
  <g id="svg_21" transform="matrix(0.29, 0, 0, 0.29, 506.82, 497.9)">
   <path d="m-238.85,-1381.09c5.39,-1.35 10.63,-2.28 15.59,-2.61c1.04,-8.87 0.77,-18.03 -0.6,-26.98c-9.93,6.67 -15.35,17.92 -14.99,29.59z" fill="rgb(114,191,68)" fill-rule="nonzero" id="svg_22" stroke-dashoffset="0" stroke-miterlimit="4" stroke-width="0" transform="translate(-1378.6, -211.77)"/>
  </g>
  <g id="svg_23" transform="matrix(0.29, 0, 0, 0.29, 512.26, 496.5)">
   <path d="m-204.66,-1386.03c2.07,-10.07 1.84,-20.77 0.03,-31.12c-4.91,0.07 -10.13,1.09 -15.59,4.24c-0.25,0.13 -0.46,0.3 -0.71,0.43c2.23,9.24 3.31,18.71 2.98,28.33c4.82,-0.26 9.27,-0.89 13.28,-1.89l0.01,0.01z" fill="rgb(114,191,68)" fill-rule="nonzero" id="svg_24" stroke-dashoffset="0" stroke-miterlimit="4" stroke-width="0" transform="translate(-1397.29, -207.01)"/>
  </g>
  <g id="svg_25" transform="matrix(0.29, 0, 0, 0.29, 496.78, 496.36)">
   <path d="m-161.54,-1388.56c0.95,-10.13 -0.49,-19.33 -1.57,-24.32c-5.73,11.36 -21.42,33.43 -57.05,34.31c-7.99,0.2 -16.89,2.05 -26.16,5.3c-1.31,0.46 -15.4,6.45 -18.52,8.56c0.78,-1.45 7.1,-14.19 11.59,-38.3c15.14,-3.82 26.37,-15.96 30.48,-31.19c-7.82,3.97 -15.31,8.52 -22.12,13.84c-1.18,0.93 -2.89,0.73 -3.82,-0.44c-0.93,-1.17 -0.73,-2.87 0.44,-3.8c8.31,-5.62 17.23,-10.06 26.4,-13.74c0.27,-1.55 0.59,-3.1 0.71,-4.7c0.66,-8.4 -0.52,-15.69 -2.89,-22.05c-8.29,4.65 -16.11,10.31 -22.87,16.81c-1.07,1.05 -2.79,1.04 -3.84,-0.02c-1.12,-1.12 -1.02,-3 0.21,-3.99c7.77,-6.35 16.25,-11.51 25.26,-15.65c-3.68,-8.16 -9.34,-14.65 -15.73,-19.74c-0.06,0.07 -0.05,0.16 -0.14,0.22c-4.77,3.62 -8.83,8.19 -11.84,13.18c-0.77,1.28 -2.45,1.7 -3.73,0.93c-1.29,-0.77 -1.71,-2.44 -0.93,-3.72c3.98,-5.06 8.93,-9.17 14.38,-12.34c-12.03,-8.8 -25.72,-13.09 -32.35,-14.76c36.96,51.96 2.51,130.59 -3.16,137.48c-2.96,-3.13 -7.06,-6.22 -11.74,-8.88c-5.92,-2.99 -11.66,-4.33 -18.75,-4.51c-35.63,-0.89 -51.32,-22.97 -57.04,-34.32c-1.08,5 -2.53,14.32 -1.57,24.45c3.29,-1.73 6.72,-3.19 10.44,-4.05c1.46,-0.35 2.93,0.56 3.28,2.02c0.35,1.46 -0.56,2.92 -2.02,3.27c-3.77,0.27 -7.6,0.96 -11.26,2.25c0.96,6.31 3,12.76 6.72,18.61c5.96,-4.57 12.38,-8.48 19.34,-11.61c1.37,-0.62 2.98,-0.01 3.6,1.35c0.62,1.36 0,2.97 -1.36,3.58c-6.83,2.32 -13.51,5.54 -19.72,9.43c4.09,5.37 9.81,10.05 17.8,13.33c6.84,-6.34 14.26,-12.15 22.55,-16.86c1.3,-0.74 2.96,-0.29 3.71,1.01c0.79,1.37 0.21,3.15 -1.23,3.8c-7.58,3.47 -14.74,8.04 -21.5,13.17c16.23,5.03 33.81,-0.45 42.38,-15.43c5.31,3.82 9.1,9.39 6.25,17.29c-1.65,4.58 -5.94,9.37 -16.4,9.37c-6.1,0 -19.02,-3.76 -31.22,3.69c-8.09,4.94 -8.02,8.35 -8.02,8.35c0,0 12.79,-5.77 22.84,-4.22c10.13,1.55 15.24,4.79 26.69,0.97c-6.22,7.15 -9.42,27.34 7.29,33.41c-8.6,-9.87 -0.39,-26.4 5.01,-27.95c5.76,14.41 30.69,15.55 44.32,9.71c17.78,-7.61 35.06,-4.99 43.59,-1.22c-9.77,-14.74 -32.54,-11.74 -41.06,-9.37c-8.53,2.36 -30.22,6.76 -33.81,-4.33c-5.19,-16.04 16.49,-28.81 35.3,-34.41c8.52,15.17 26.21,20.73 42.53,15.67c-6.76,-5.13 -13.92,-9.7 -21.5,-13.17c-1.37,-0.62 -1.97,-2.23 -1.35,-3.59c0.62,-1.36 2.23,-1.96 3.6,-1.34c8.38,4.69 15.87,10.58 22.76,16.97c7.98,-3.28 13.65,-7.99 17.74,-13.37c-6.11,-3.82 -12.67,-7.01 -19.39,-9.29c-1.43,-0.47 -2.2,-2 -1.74,-3.42c0.49,-1.52 2.25,-2.29 3.7,-1.62c1.56,0.27 12.82,6.6 19.39,11.52c3.64,-5.77 5.67,-12.11 6.64,-18.34c-3.51,-1.24 -7.14,-2.15 -10.76,-2.36c-1.5,-0.09 -2.65,-1.37 -2.56,-2.87c0.77,-4.8 8.47,-1.47 13.79,1.43l-0.01,0.01z" fill="rgb(114,191,68)" fill-rule="nonzero" id="svg_26" stroke-dashoffset="0" stroke-miterlimit="4" stroke-width="0" transform="translate(-1344.63, -206.97)"/>
  </g>
  <g id="svg_27" transform="matrix(0.29, 0, 0, 0.29, 517.9, 495.99)">
   <path d="m-199.18,-1387.62c5.41,-1.89 9.95,-4.39 13.85,-7.15c1.42,-6.28 1.5,-13.05 0.64,-19.69c-0.41,-0.05 -0.81,-0.05 -1.22,-0.11c-4.47,-0.67 -9.67,-2.14 -15.39,-2.53c2.27,9.66 3.14,19.56 2.12,29.48z" fill="rgb(114,191,68)" fill-rule="nonzero" id="svg_28" stroke-dashoffset="0" stroke-miterlimit="4" stroke-width="0" transform="translate(-1416.63, -205.3)"/>
  </g>
  <g id="svg_29" transform="matrix(0.29, 0, 0, 0.29, 523.23, 494.49)">
   <path d="m-167.63,-1415.82c-3.21,0.79 -8.22,1.71 -13.59,1.61c1.07,4.85 1.67,9.8 1.56,14.85c6.29,-5.89 9.99,-12.17 12.03,-16.46z" fill="rgb(114,191,68)" fill-rule="nonzero" id="svg_30" stroke-dashoffset="0" stroke-miterlimit="4" stroke-width="0" transform="translate(-1434.93, -200.07)"/>
  </g>
 </g>
 <g class="layer">
  <title>Layer 2</title>
 </g>
</svg>